<svg viewBox="0 0 820 360" width="820" height="360" xmlns="http://www.w3.org/2000/svg">
	<rect x="10" y="10" width="800" height="340" rx="22" fill="#f8f6ef" stroke="#d7d1c2"/>
	<rect x="56" y="36" width="240" height="260" rx="22" fill="#000000" stroke="#173b36" stroke-width="3"/>
	<rect x="76" y="60" width="200" height="100" rx="10" fill="#1a1a1a" stroke="#333"/>
	<text x="176" y="110" text-anchor="middle" font-size="12" fill="#666" font-family="Segoe UI">Camera preview</text>
	<text x="176" y="128" text-anchor="middle" font-size="9" fill="#994444" font-family="Segoe UI">(debug uniquement — absent en version finale)</text>
	<rect x="76" y="172" width="200" height="28" rx="8" fill="rgb(255,204,0)" stroke="none"/>
	<text x="176" y="192" text-anchor="middle" font-size="14" fill="#000" font-family="Segoe UI" font-weight="bold">SCAN</text>
	<rect x="76" y="206" width="200" height="22" rx="8" fill="rgb(26,179,77)" stroke="none"/>
	<text x="176" y="222" text-anchor="middle" font-size="12" fill="#fff" font-family="Segoe UI" font-weight="bold">DESCRIBE</text>
	<rect x="76" y="234" width="200" height="20" rx="8" fill="rgb(51,153,255)" stroke="none"/>
	<text x="176" y="248" text-anchor="middle" font-size="12" fill="#fff" font-family="Segoe UI" font-weight="bold">REPEAT</text>
	<rect x="76" y="260" width="200" height="18" rx="8" fill="rgb(77,77,77)" stroke="none"/>
	<text x="176" y="274" text-anchor="middle" font-size="11" fill="#fff" font-family="Segoe UI" font-weight="bold">SETTINGS</text>
	<text x="340" y="52" fill="#173b36" font-size="18" font-weight="bold" font-family="Segoe UI">Extrait du fichier a_eyes.kv</text>
	<rect x="340" y="62" width="430" height="228" rx="12" fill="#1e1e1e" stroke="#333" stroke-width="2"/>
	<g font-family="Consolas, monospace" font-size="12" fill="#d4d4d4">
		<text x="358" y="86" fill="#569cd6">&lt;MainScreen&gt;:</text>
		<text x="358" y="106" fill="#6a9955">    canvas.before:</text>
		<text x="358" y="122" fill="#d4d4d4">        Color:</text>
		<text x="358" y="138" fill="#b5cea8">            rgba: 0, 0, 0, 1</text>
		<text x="358" y="162" fill="#6a9955">    BoxLayout:</text>
		<text x="358" y="178" fill="#d4d4d4">        orientation: "vertical"</text>
		<text x="358" y="198" fill="#569cd6">        Button:</text>
		<text x="358" y="214" fill="#ce9178">            text: "SCAN"</text>
		<text x="358" y="230" fill="#b5cea8">            height: "110dp"</text>
		<text x="358" y="246" fill="#b5cea8">            background_color: 1, 0.8, 0, 1</text>
		<text x="358" y="266" fill="#569cd6">        Button:</text>
		<text x="358" y="282" fill="#ce9178">            text: "DESCRIBE"</text>
	</g>
	<rect x="340" y="300" width="430" height="36" rx="10" fill="#fff7d1" stroke="#a88723"/>
	<text x="555" y="324" text-anchor="middle" font-size="13" fill="#5a480e" font-family="Segoe UI">Separation code/UI → layout declaratif sans toucher au Python</text>
</svg>
