<svg viewBox="0 0 820 380" width="820" height="380" xmlns="http://www.w3.org/2000/svg">
	<rect x="10" y="10" width="800" height="360" rx="22" fill="#f8f6ef" stroke="#d7d1c2"/>
	<rect x="300" y="46" width="220" height="64" rx="18" fill="#fff7d1" stroke="#a88723" stroke-width="2"/>
	<text x="410" y="74" text-anchor="middle" font-size="18" fill="#5a480e" font-family="Segoe UI">Ecran principal</text>
	<text x="410" y="96" text-anchor="middle" font-size="12" fill="#5a480e" font-family="Segoe UI">main_screen.py — orchestration</text>
	<rect x="46" y="36" width="180" height="48" rx="14" fill="#eef6f5" stroke="#4e8c82" stroke-width="2"/>
	<text x="136" y="58" text-anchor="middle" font-size="14" fill="#173b36" font-family="Segoe UI">UI (a_eyes.kv)</text>
	<text x="136" y="74" text-anchor="middle" font-size="11" fill="#5a6d68" font-family="Segoe UI">Kivy</text>
	<rect x="594" y="36" width="180" height="48" rx="14" fill="#eef6f5" stroke="#4e8c82" stroke-width="2"/>
	<text x="684" y="58" text-anchor="middle" font-size="14" fill="#173b36" font-family="Segoe UI">Camera (capture.py)</text>
	<text x="684" y="74" text-anchor="middle" font-size="11" fill="#5a6d68" font-family="Segoe UI">OpenCV</text>
	<rect x="46" y="104" width="180" height="72" rx="14" fill="#eef6f5" stroke="#4e8c82" stroke-width="2"/>
	<text x="136" y="126" text-anchor="middle" font-size="14" fill="#173b36" font-family="Segoe UI">STT (listener.py)</text>
	<text x="136" y="142" text-anchor="middle" font-size="10" fill="#5a6d68" font-family="Segoe UI">SpeechRecognition</text>
	<text x="136" y="156" text-anchor="middle" font-size="10" fill="#5a6d68" font-family="Segoe UI">6 commandes vocales</text>
	<rect x="594" y="104" width="180" height="72" rx="14" fill="#eef6f5" stroke="#4e8c82" stroke-width="2"/>
	<text x="684" y="126" text-anchor="middle" font-size="14" fill="#173b36" font-family="Segoe UI">TTS (speaker.py)</text>
	<text x="684" y="142" text-anchor="middle" font-size="10" fill="#5a6d68" font-family="Segoe UI">SAPI / AVSpeech / Google TTS</text>
	<text x="684" y="156" text-anchor="middle" font-size="10" fill="#5a6d68" font-family="Segoe UI">Thread async + file de messages</text>
	<text x="684" y="170" text-anchor="middle" font-size="10" fill="#5a6d68" font-family="Segoe UI">Repeat | Vitesse reglable</text>
	<path d="M226 60 C270 60 280 66 300 72" fill="none" stroke="#8a9e98" stroke-width="2.5"/>
	<path d="M594 60 C548 60 540 66 520 72" fill="none" stroke="#8a9e98" stroke-width="2.5"/>
	<path d="M226 136 C270 126 290 116 310 110" fill="none" stroke="#8a9e98" stroke-width="2.5"/>
	<path d="M594 136 C548 126 530 116 510 110" fill="none" stroke="#8a9e98" stroke-width="2.5"/>
	<rect x="330" y="130" width="160" height="36" rx="14" fill="#ffffff" stroke="#b56b6b" stroke-dasharray="6 4"/>
	<text x="410" y="154" text-anchor="middle" font-size="13" fill="#b56b6b" font-family="Segoe UI">Module IA → V1</text>
	<line x1="40" y1="200" x2="780" y2="200" stroke="#d7d1c2" stroke-width="1"/>
	<text x="410" y="224" text-anchor="middle" font-size="16" fill="#173b36" font-family="Segoe UI" font-weight="bold">Choix techniques</text>
	<g font-size="13" font-family="Segoe UI">
		<rect x="46" y="240" width="170" height="56" rx="14" fill="#eef6f5" stroke="#4e8c82"/>
		<text x="131" y="264" text-anchor="middle" fill="#173b36" font-size="16">Kivy</text>
		<text x="131" y="284" text-anchor="middle" fill="#5a6d68">Multi-plateforme</text>
		<rect x="232" y="240" width="170" height="56" rx="14" fill="#eef6f5" stroke="#4e8c82"/>
		<text x="317" y="264" text-anchor="middle" fill="#173b36" font-size="16">OpenCV</text>
		<text x="317" y="284" text-anchor="middle" fill="#5a6d68">Camera robuste</text>
		<rect x="418" y="240" width="170" height="56" rx="14" fill="#fff7d1" stroke="#a88723"/>
		<text x="503" y="264" text-anchor="middle" fill="#5a480e" font-size="16">TTS</text>
		<text x="503" y="284" text-anchor="middle" fill="#5a480e">Moteurs natifs par plateforme</text>
		<rect x="604" y="240" width="170" height="56" rx="14" fill="#eef6f5" stroke="#4e8c82"/>
		<text x="689" y="264" text-anchor="middle" fill="#173b36" font-size="14">SpeechRecognition</text>
		<text x="689" y="284" text-anchor="middle" fill="#5a6d68">Mains libres</text>
	</g>
	<rect x="46" y="310" width="728" height="40" rx="12" fill="#fff7d1" stroke="#a88723"/>
	<text x="410" y="328" text-anchor="middle" font-size="12" fill="#5a480e" font-family="Segoe UI">Python : ecosysteme riche, bibliotheques pretes a l'emploi, assemblage rapide en peu de code</text>
	<text x="410" y="344" text-anchor="middle" font-size="12" fill="#5a480e" font-family="Segoe UI">Architecture : une classe par module → independance, testabilite, evolution facile vers V1</text>
</svg>
